<svg width="500" height="144" version="1.1" xmlns="http://www.w3.org/2000/svg" desc="Created with imagetracer.js version 1.2.6" ><path fill="rgb(0,0,0)" stroke="rgb(0,0,0)" stroke-width="1" opacity="0" d="M 0 0 L 499.5 0 L 500 0.5 L 500 144 L 0.5 144 L 0 143.5 L 0 0 Z M 174 16 L 162 22 Q 155 28 152 39 L 152 55 L 158 68 Q 163 75 173 77 Q 189 79 196 71 L 196 75 L 210 75 L 210 45 L 209 43 L 184 43 L 184 56 L 191 56 L 191 58 L 186 62 L 177 61 L 171 54 L 171 40 L 173 36 L 179 31 L 186 32 L 189 37 Q 195 35 207 36 L 208 35 L 204 27 Q 197 13 174 16 Z M 10 17 L 10 75 L 45 75 L 58 68 Q 63 62 65 53 Q 67 36 60 28 Q 55 21 46 18 L 41 17 L 10 17 Z M 70 17 L 70 75 L 89 75 L 89 55 L 100 56 L 103 60 L 104 74 L 106 75 L 123 75 L 122 59 L 118 50 L 115 49 L 119 46 L 123 39 Q 124 30 121 26 Q 117 19 108 17 L 70 17 Z M 216 17 L 216 61 L 219 68 Q 224 75 235 77 Q 252 79 262 73 Q 268 69 270 60 L 270 17 L 251 17 L 251 57 L 250 59 L 246 62 L 239 61 L 235 58 L 235 19 L 234 17 L 216 17 Z M 276 17 L 276 75 L 277 75 L 295 75 L 296 48 L 309 73 L 312 75 L 330 75 L 330 18 L 330 17 L 312 17 L 312 45 L 296 19 L 295 17 L 276 17 Z M 337 17 L 337 75 L 387 75 L 387 60 L 356 60 L 356 55 L 357 54 L 382 54 L 382 39 L 356 39 L 356 34 L 357 33 L 386 33 L 386 18 L 386 17 L 337 17 Z M 392 17 L 392 75 L 442 75 L 442 60 L 411 60 L 411 55 L 412 54 L 437 54 L 437 39 L 411 39 L 411 34 L 412 33 L 441 33 L 441 18 L 441 17 L 392 17 Z M 443 17 L 443 33 L 460 33 L 460 34 L 460 75 L 479 75 L 479 34 L 480 33 L 496 33 L 496 19 L 495 17 L 443 17 Z M 130 59 L 128 61 L 128 75 L 147 75 L 147 59 L 130 59 Z M 18 98 L 18 102 L 485 102 L 485 100 L 484 98 L 18 98 Z M 25 121 L 22 122 L 18 127 L 19 135 L 24 138 L 29 137 L 31 134 L 32 132 Q 27 131 28 134 L 26 135 L 21 132 Q 20 125 25 124 L 29 127 L 32 127 L 31 125 Q 29 121 25 121 Z M 101 121 L 98 122 L 94 127 L 95 135 L 101 138 L 105 137 L 107 134 L 108 132 Q 103 131 104 134 L 101 135 Q 96 134 97 128 L 101 125 L 102 124 L 105 127 L 108 127 L 107 125 Q 105 121 101 121 Z M 148 121 L 144 122 L 140 128 L 141 135 L 147 138 L 153 136 Q 155 133 154 126 L 148 121 Z M 226 121 L 223 122 L 219 126 L 218 130 L 220 136 L 225 138 L 230 137 L 232 132 L 230 132 L 226 135 L 224 134 Q 220 132 222 127 L 226 124 Q 227 128 232 127 L 231 124 L 226 121 Z M 391 121 L 388 122 Q 385 123 386 129 L 393 132 Q 395 131 394 134 L 392 135 L 388 132 Q 384 131 385 135 L 390 138 L 395 137 Q 398 136 397 132 L 389 127 L 391 124 L 396 127 L 397 125 Q 395 121 391 121 Z M 445 121 L 442 122 L 439 128 Q 441 131 446 131 L 447 134 L 444 135 L 442 132 Q 438 130 439 135 L 444 138 L 449 137 Q 452 136 451 132 L 443 127 L 445 124 L 449 127 L 451 126 L 450 124 L 445 121 Z M 480 121 L 477 122 Q 473 123 474 128 L 482 133 L 481 135 Q 476 136 476 132 Q 472 131 474 136 L 479 138 L 484 137 L 486 134 L 485 131 L 479 127 Q 476 128 477 125 L 480 124 L 484 127 Q 487 128 485 124 L 480 121 Z M 38 122 L 38 137 L 48 137 L 48 135 L 41 135 L 41 123 L 38 122 Z M 54 122 L 54 137 L 58 137 L 58 123 L 54 122 Z M 64 122 L 64 137 L 68 137 L 69 129 L 72 135 Q 73 138 77 137 L 77 123 L 74 122 L 74 131 L 69 124 Q 68 121 64 122 Z M 84 122 L 84 137 L 88 137 L 88 123 L 84 122 Z M 124 122 L 124 137 L 127 137 L 127 131 L 134 131 L 134 128 L 127 128 L 127 125 L 134 125 L 134 122 L 124 122 Z M 161 122 L 161 137 L 164 137 L 164 132 L 167 132 L 169 137 L 173 137 L 170 132 L 173 127 L 172 124 L 171 122 L 161 122 Z M 189 122 L 189 137 L 192 137 L 192 123 L 189 122 Z M 199 122 L 199 137 L 202 137 L 203 128 L 208 136 L 208 137 L 212 137 L 212 123 L 209 122 L 209 131 L 204 125 Q 203 121 199 122 Z M 239 122 L 239 135 L 244 138 Q 250 139 251 135 L 251 123 L 248 122 L 248 133 L 246 135 L 242 133 L 242 123 L 239 122 Z M 258 122 L 258 137 L 261 137 L 261 132 L 264 132 L 266 137 L 270 137 L 267 132 L 270 127 L 269 124 L 268 122 L 258 122 Z M 280 122 L 276 136 L 276 137 Q 281 139 279 134 L 285 134 L 285 136 L 289 137 L 284 124 L 284 122 L 280 122 Z M 295 122 L 295 137 L 305 137 L 307 134 L 305 130 L 306 125 L 304 122 L 295 122 Z M 313 122 L 313 137 L 323 137 L 323 135 L 316 135 L 316 123 L 313 122 Z M 329 122 L 329 137 L 340 137 L 340 135 L 332 135 L 332 131 L 339 131 L 339 128 L 332 128 L 332 125 L 339 125 L 339 122 L 329 122 Z M 356 122 L 356 137 L 366 137 L 369 133 L 368 125 L 366 122 L 356 122 Z M 375 122 L 375 137 L 379 137 L 379 123 L 375 122 Z M 403 122 L 403 137 L 414 137 L 414 135 L 407 135 L 407 131 L 413 131 L 413 128 L 407 128 L 407 125 Q 412 126 414 124 L 414 122 L 403 122 Z M 424 122 L 419 137 L 423 137 L 425 134 Q 429 133 430 136 Q 429 139 433 137 L 429 124 Q 428 121 424 122 Z M 457 122 L 457 137 L 468 137 L 468 135 L 460 135 L 460 131 L 467 131 L 467 128 L 460 128 L 460 125 L 467 125 L 467 122 L 457 122 Z " /><path fill="rgb(0,0,0)" stroke="rgb(0,0,0)" stroke-width="1" opacity="0" d="M 89 32 L 100.5 32 L 103 33 L 104 38.5 Q 99.7 43.9 89 42 L 89 32 Z " /><path fill="rgb(0,0,0)" stroke="rgb(0,0,0)" stroke-width="1" opacity="0" d="M 29 33 Q 39.6 31.5 44 37.5 Q 47.5 41.5 46 50.5 L 40.5 58 L 38.5 59 L 29 59 L 29 33 Z " /><path fill="rgb(0,0,0)" stroke="rgb(0,0,0)" stroke-width="1" opacity="0" d="M 147.5 124 L 151 126.5 Q 152.5 132.5 149.5 134 L 146.5 135 Q 143.3 133.3 143 128.5 L 145.5 125 L 147.5 124 Z " /><path fill="rgb(0,0,0)" stroke="rgb(0,0,0)" stroke-width="1" opacity="0" d="M 164 125 L 169 125 L 169 127.5 Q 167.8 130 164 129 L 164 125 Z " /><path fill="rgb(0,0,0)" stroke="rgb(0,0,0)" stroke-width="1" opacity="0" d="M 261 125 L 266 125 L 266 127.5 Q 264.8 130 261 129 L 261 125 Z " /><path fill="rgb(0,0,0)" stroke="rgb(0,0,0)" stroke-width="1" opacity="0" d="M 298 125 L 303 125 L 303 126.5 Q 301.8 129 298 128 L 298 125 Z " /><path fill="rgb(0,0,0)" stroke="rgb(0,0,0)" stroke-width="1" opacity="0" d="M 359 125 Q 364.5 123.8 366 127.5 Q 367 133 363.5 134 L 359 135 L 359 125 Z " /><path fill="rgb(0,0,0)" stroke="rgb(0,0,0)" stroke-width="1" opacity="0" d="M 282.5 127 L 284 130.5 L 281 131 L 282.5 127 Z " /><path fill="rgb(0,0,0)" stroke="rgb(0,0,0)" stroke-width="1" opacity="0" d="M 426.5 127 L 428 131 Q 424.2 132.5 425 129.5 L 426.5 127 Z " /><path fill="rgb(0,0,0)" stroke="rgb(0,0,0)" stroke-width="1" opacity="0" d="M 298 131 L 303 131 L 303 133.5 Q 301.8 136 298 135 L 298 131 Z " /><path fill="rgb(45,142,166)" stroke="rgb(45,142,166)" stroke-width="1" opacity="0.5843137254901961" d="M 173.5 16 L 180 16.5 Q 172.8 16.3 168.5 19 L 168.5 18 L 173.5 16 Z " /><path fill="rgb(45,142,166)" stroke="rgb(45,142,166)" stroke-width="1" opacity="0.5843137254901961" d="M 181.5 16 L 188 16.5 L 181.5 17 L 181.5 16 Z " /><path fill="rgb(45,142,166)" stroke="rgb(45,142,166)" stroke-width="1" opacity="0.5843137254901961" d="M 10.5 17 L 41 17.5 L 10.5 18 L 10.5 17 Z " /><path fill="rgb(45,142,166)" stroke="rgb(45,142,166)" stroke-width="1" opacity="0.5843137254901961" d="M 70.5 17 L 108 17.5 L 70.5 18 L 70.5 17 Z " /><path fill="rgb(45,142,166)" stroke="rgb(45,142,166)" stroke-width="1" opacity="0.5843137254901961" d="M 189.5 17 Q 199.5 19 204 26.5 L 197.5 21 L 189.5 18 L 189.5 17 Z " /><path fill="rgb(45,142,166)" stroke="rgb(45,142,166)" stroke-width="1" opacity="0.5843137254901961" d="M 216.5 17 L 233.5 17 L 235 18.5 L 234.5 57 L 234 18 L 216.5 18 L 216.5 17 Z " /><path fill="rgb(45,142,166)" stroke="rgb(45,142,166)" stroke-width="1" opacity="0.5843137254901961" d="M 251 17 L 270 17.5 L 252 18 L 252 56.5 L 247.5 62 L 246 61.5 L 250 58.5 L 251 56.5 L 251 17 Z " /><path fill="rgb(45,142,166)" stroke="rgb(45,142,166)" stroke-width="1" opacity="0.5843137254901961" d="M 276 17 L 294.5 17 L 296 18.5 L 307 37.5 L 305 36.5 L 295 18 L 277.5 18 L 277 18.5 L 277 74.5 L 276 74.5 L 276 17 Z " /><path fill="rgb(45,142,166)" stroke="rgb(45,142,166)" stroke-width="1" opacity="0.5843137254901961" d="M 312.5 17 L 330 17.5 L 312.5 18 L 312.5 17 Z " /><path fill="rgb(45,142,166)" stroke="rgb(45,142,166)" stroke-width="1" opacity="0.5843137254901961" d="M 337.5 17 L 386 17.5 L 337.5 18 L 337.5 17 Z " /><path fill="rgb(45,142,166)" stroke="rgb(45,142,166)" stroke-width="1" opacity="0.5843137254901961" d="M 392.5 17 L 441 17.5 L 392.5 18 L 392.5 17 Z " /><path fill="rgb(45,142,166)" stroke="rgb(45,142,166)" stroke-width="1" opacity="0.5843137254901961" d="M 443 17 L 494.5 17 L 496 18.5 L 496 33 L 479.5 33 L 479 33.5 L 479 74.5 L 478 74.5 L 478 33.5 L 479.5 32 L 495 32 L 495 18 L 444.5 18 L 444 18.5 L 444 32 L 459.5 32 L 461 33.5 L 460.5 75 L 460 33 L 443 33 L 443 17 Z " /><path fill="rgb(45,142,166)" stroke="rgb(45,142,166)" stroke-width="1" opacity="0.5843137254901961" d="M 42.5 18 Q 54.4 19.6 60 27.5 L 63 33.5 L 62 33.5 L 55.5 24 Q 51 19.5 42.5 19 L 42.5 18 Z " /><path fill="rgb(45,142,166)" stroke="rgb(45,142,166)" stroke-width="1" opacity="0.5843137254901961" d="M 109.5 18 Q 117.6 19.4 121 25.5 Q 124.1 29.9 123 38.5 L 122 38.5 Q 123.3 25.3 115.5 21 L 109.5 19 L 109.5 18 Z " /><path fill="rgb(45,142,166)" stroke="rgb(45,142,166)" stroke-width="1" opacity="0.5843137254901961" d="M 166.5 19 L 165.5 21 L 160 24 L 153.5 37 L 153 34.5 L 161.5 22 L 166.5 19 Z " /><path fill="rgb(45,142,166)" stroke="rgb(45,142,166)" stroke-width="1" opacity="0.5843137254901961" d="M 204.5 28 L 208 34.5 L 206.5 36 L 197.5 36 L 197.5 35 L 207 34.5 L 204.5 28 Z " /><path fill="rgb(45,142,166)" stroke="rgb(45,142,166)" stroke-width="1" opacity="0.5843137254901961" d="M 179.5 30 L 182 30.5 L 179.5 31 L 179.5 30 Z " /><path fill="rgb(45,142,166)" stroke="rgb(45,142,166)" stroke-width="1" opacity="0.5843137254901961" d="M 88 31 L 100.5 31 L 104 33.5 L 105 37.5 L 104 37.5 L 103 33 L 100.5 32 L 89 32 L 88.5 42 L 88 31 Z " /><path fill="rgb(45,142,166)" stroke="rgb(45,142,166)" stroke-width="1" opacity="0.5843137254901961" d="M 176.5 31 L 178 31.5 L 173 35.5 L 171.5 39 L 171 37.5 L 176.5 31 Z " /><path fill="rgb(45,142,166)" stroke="rgb(45,142,166)" stroke-width="1" opacity="0.5843137254901961" d="M 184.5 31 L 193 36.5 L 189 37 L 185.5 32 L 184.5 31 Z " /><path fill="rgb(45,142,166)" stroke="rgb(45,142,166)" stroke-width="1" opacity="0.5843137254901961" d="M 28 32 L 35 32.5 L 29 33 L 29 59 L 37.5 59 L 37.5 60 L 28 60 L 28 32 Z " /><path fill="rgb(45,142,166)" stroke="rgb(45,142,166)" stroke-width="1" opacity="0.5843137254901961" d="M 355 32 L 386 32.5 L 356 33 L 355.5 39 L 355 32 Z " /><path fill="rgb(45,142,166)" stroke="rgb(45,142,166)" stroke-width="1" opacity="0.5843137254901961" d="M 410 32 L 441 32.5 L 411 33 L 410.5 39 L 410 32 Z " /><path fill="rgb(45,142,166)" stroke="rgb(45,142,166)" stroke-width="1" opacity="0.5843137254901961" d="M 37.5 33 Q 43.1 33.5 45 37.5 L 46 40.5 L 45 40.5 L 41.5 35 L 37.5 34 L 37.5 33 Z " /><path fill="rgb(45,142,166)" stroke="rgb(45,142,166)" stroke-width="1" opacity="0.5843137254901961" d="M 63.5 35 L 64 37.5 L 63 37.5 L 63.5 35 Z " /><path fill="rgb(45,142,166)" stroke="rgb(45,142,166)" stroke-width="1" opacity="0.5843137254901961" d="M 152.5 38 L 153 43.5 L 152 43.5 L 152.5 38 Z " /><path fill="rgb(45,142,166)" stroke="rgb(45,142,166)" stroke-width="1" opacity="0.5843137254901961" d="M 64.5 39 L 65 52.5 L 64 52.5 L 64.5 39 Z " /><path fill="rgb(45,142,166)" stroke="rgb(45,142,166)" stroke-width="1" opacity="0.5843137254901961" d="M 103.5 39 L 101.5 42 L 99 41.5 L 103.5 39 Z " /><path fill="rgb(45,142,166)" stroke="rgb(45,142,166)" stroke-width="1" opacity="0.5843137254901961" d="M 307.5 39 L 312 46.5 L 311 46.5 L 307.5 39 Z " /><path fill="rgb(45,142,166)" stroke="rgb(45,142,166)" stroke-width="1" opacity="0.5843137254901961" d="M 381.5 39 L 382 54 L 356.5 54 Q 355.4 54.1 356 59.5 L 355 59.5 Q 354.3 53.3 355.5 53 L 381 53 L 381.5 39 Z " /><path fill="rgb(45,142,166)" stroke="rgb(45,142,166)" stroke-width="1" opacity="0.5843137254901961" d="M 436.5 39 L 437 54 L 411.5 54 Q 410.4 54.1 411 59.5 L 410 59.5 Q 409.3 53.3 410.5 53 L 436 53 L 436.5 39 Z " /><path fill="rgb(45,142,166)" stroke="rgb(45,142,166)" stroke-width="1" opacity="0.5843137254901961" d="M 121.5 40 L 122 41.5 L 118.5 46 L 115 48.5 L 118 50 L 121 56.5 L 120 56.5 L 114.5 49 L 113 48.5 L 121 41.5 L 121.5 40 Z " /><path fill="rgb(45,142,166)" stroke="rgb(45,142,166)" stroke-width="1" opacity="0.5843137254901961" d="M 170.5 40 L 171 52.5 L 170 52.5 L 170.5 40 Z " /><path fill="rgb(45,142,166)" stroke="rgb(45,142,166)" stroke-width="1" opacity="0.5843137254901961" d="M 46.5 42 L 47 49.5 L 46 49.5 L 46.5 42 Z " /><path fill="rgb(45,142,166)" stroke="rgb(45,142,166)" stroke-width="1" opacity="0.5843137254901961" d="M 184 43 L 208.5 43 L 210 44.5 L 209.5 75 L 209 44 L 185 44 L 185 55.5 L 184 55.5 L 184 43 Z " /><path fill="rgb(45,142,166)" stroke="rgb(45,142,166)" stroke-width="1" opacity="0.5843137254901961" d="M 294.5 46 Q 297.2 47.3 295 48.5 L 294.5 75 L 294.5 46 Z " /><path fill="rgb(45,142,166)" stroke="rgb(45,142,166)" stroke-width="1" opacity="0.5843137254901961" d="M 152.5 49 L 153 54.5 L 152 54.5 L 152.5 49 Z " /><path fill="rgb(45,142,166)" stroke="rgb(45,142,166)" stroke-width="1" opacity="0.5843137254901961" d="M 296.5 49 L 300 54.5 L 298 53.5 L 296.5 49 Z " /><path fill="rgb(45,142,166)" stroke="rgb(45,142,166)" stroke-width="1" opacity="0.5843137254901961" d="M 45.5 51 L 46 53.5 L 44 57 L 39.5 59 L 39.5 58 L 45 53.5 L 45.5 51 Z " /><path fill="rgb(45,142,166)" stroke="rgb(45,142,166)" stroke-width="1" opacity="0.5843137254901961" d="M 63.5 54 L 64 56.5 L 63 56.5 L 63.5 54 Z " /><path fill="rgb(45,142,166)" stroke="rgb(45,142,166)" stroke-width="1" opacity="0.5843137254901961" d="M 171.5 54 L 176.5 61 L 185 62.5 L 179.5 63 L 172 57.5 L 171.5 54 Z " /><path fill="rgb(45,142,166)" stroke="rgb(45,142,166)" stroke-width="1" opacity="0.5843137254901961" d="M 269.5 54 L 270 59.5 L 269 59.5 L 269.5 54 Z " /><path fill="rgb(45,142,166)" stroke="rgb(45,142,166)" stroke-width="1" opacity="0.5843137254901961" d="M 88.5 55 L 89 74.5 L 88 74.5 L 88.5 55 Z " /><path fill="rgb(45,142,166)" stroke="rgb(45,142,166)" stroke-width="1" opacity="0.5843137254901961" d="M 96.5 55 Q 102.3 54.3 103 58.5 L 99.5 56 Q 95.5 56.8 96.5 55 Z " /><path fill="rgb(45,142,166)" stroke="rgb(45,142,166)" stroke-width="1" opacity="0.5843137254901961" d="M 216.5 55 L 217 60.5 L 216 60.5 L 216.5 55 Z " /><path fill="rgb(45,142,166)" stroke="rgb(45,142,166)" stroke-width="1" opacity="0.5843137254901961" d="M 191.5 56 L 192 57.5 L 186.5 62 L 186.5 61 L 191 57.5 L 191.5 56 Z " /><path fill="rgb(45,142,166)" stroke="rgb(45,142,166)" stroke-width="1" opacity="0.5843137254901961" d="M 300.5 56 L 307 66.5 L 305 65.5 L 300.5 56 Z " /><path fill="rgb(45,142,166)" stroke="rgb(45,142,166)" stroke-width="1" opacity="0.5843137254901961" d="M 62.5 58 L 63 59.5 L 58 68 L 47.5 74 L 40.5 75 L 40.5 74 Q 54.2 72.7 60 63.5 L 62.5 58 Z " /><path fill="rgb(45,142,166)" stroke="rgb(45,142,166)" stroke-width="1" opacity="0.5843137254901961" d="M 121.5 58 L 122 62.5 L 121 62.5 L 121.5 58 Z " /><path fill="rgb(45,142,166)" stroke="rgb(45,142,166)" stroke-width="1" opacity="0.5843137254901961" d="M 235.5 58 L 240 61.5 L 238.5 62 L 236 61 L 235.5 58 Z " /><path fill="rgb(45,142,166)" stroke="rgb(45,142,166)" stroke-width="1" opacity="0.5843137254901961" d="M 129.5 59 L 147 59 L 147 74.5 L 146 74.5 L 146 60 L 129 60 L 128.5 75 L 128 60.5 L 129.5 59 Z " /><path fill="rgb(45,142,166)" stroke="rgb(45,142,166)" stroke-width="1" opacity="0.5843137254901961" d="M 154.5 59 Q 157.3 67.2 163.5 72 L 171 75.5 L 169.5 76 Q 162.1 73.4 158 67.5 L 154 60.5 L 154.5 59 Z " /><path fill="rgb(45,142,166)" stroke="rgb(45,142,166)" stroke-width="1" opacity="0.5843137254901961" d="M 103.5 60 L 104 62.5 L 103 62.5 L 103.5 60 Z " /><path fill="rgb(45,142,166)" stroke="rgb(45,142,166)" stroke-width="1" opacity="0.5843137254901961" d="M 268.5 61 L 269 63.5 L 261.5 73 Q 255.9 77.4 245.5 77 L 245.5 76 Q 260.5 76.5 266 67.5 L 268.5 61 Z " /><path fill="rgb(45,142,166)" stroke="rgb(45,142,166)" stroke-width="1" opacity="0.5843137254901961" d="M 217.5 62 Q 219.4 68.6 224.5 72 L 227 73.5 L 225.5 73 L 219 67.5 L 217.5 62 Z " /><path fill="rgb(45,142,166)" stroke="rgb(45,142,166)" stroke-width="1" opacity="0.5843137254901961" d="M 241.5 62 L 245 62.5 L 241.5 63 L 241.5 62 Z " /><path fill="rgb(45,142,166)" stroke="rgb(45,142,166)" stroke-width="1" opacity="0.5843137254901961" d="M 104.5 65 L 105 73.5 L 104 73.5 L 104.5 65 Z " /><path fill="rgb(45,142,166)" stroke="rgb(45,142,166)" stroke-width="1" opacity="0.5843137254901961" d="M 122.5 65 L 123 72.5 L 122 72.5 L 122.5 65 Z " /><path fill="rgb(45,142,166)" stroke="rgb(45,142,166)" stroke-width="1" opacity="0.5843137254901961" d="M 386.5 67 L 387 70.5 L 386 70.5 L 386.5 67 Z " /><path fill="rgb(45,142,166)" stroke="rgb(45,142,166)" stroke-width="1" opacity="0.5843137254901961" d="M 307.5 68 L 312 74.5 L 309 72.5 L 307.5 68 Z " /><path fill="rgb(45,142,166)" stroke="rgb(45,142,166)" stroke-width="1" opacity="0.5843137254901961" d="M 195.5 70 Q 198.9 69.1 197 74.5 L 196 74.5 L 195.5 71 L 187.5 76 L 187.5 75 L 195.5 70 Z " /><path fill="rgb(45,142,166)" stroke="rgb(45,142,166)" stroke-width="1" opacity="0.5843137254901961" d="M 228.5 74 L 233 75.5 L 230.5 76 L 228.5 74 Z " /><path fill="rgb(45,142,166)" stroke="rgb(45,142,166)" stroke-width="1" opacity="0.5843137254901961" d="M 172.5 76 L 177 76.5 L 172.5 77 L 172.5 76 Z " /><path fill="rgb(45,142,166)" stroke="rgb(45,142,166)" stroke-width="1" opacity="0.5843137254901961" d="M 181.5 76 L 186 76.5 L 181.5 77 L 181.5 76 Z " /><path fill="rgb(45,142,166)" stroke="rgb(45,142,166)" stroke-width="1" opacity="0.5843137254901961" d="M 234.5 76 L 241 76.5 L 234.5 77 L 234.5 76 Z " /><path fill="rgb(45,142,166)" stroke="rgb(45,142,166)" stroke-width="1" opacity="0.5843137254901961" d="M 18 98 L 483.5 98 L 485 99.5 L 484.5 102 L 18 102 L 18 98 Z M 19 99 L 20 101 L 484 101 L 484 99 L 19 99 Z " /><path fill="rgb(45,142,166)" stroke="rgb(45,142,166)" stroke-width="1" opacity="0.5843137254901961" d="M 24.5 121 Q 29.3 121.3 31 124.5 L 32 126.5 L 30 125.5 L 28.5 123 L 24.5 122 L 20 124.5 L 19 132.5 L 21.5 136 L 26.5 137 L 30.5 134 L 28.5 137 L 23.5 138 L 19 134.5 L 18 126.5 L 21.5 122 L 24.5 121 Z " /><path fill="rgb(45,142,166)" stroke="rgb(45,142,166)" stroke-width="1" opacity="0.5843137254901961" d="M 100.5 121 Q 105.3 121.3 107 124.5 L 104.5 123 L 100.5 122 L 96 124.5 L 95 132.5 L 97.5 136 L 99 136.5 L 97.5 137 Q 92.7 134.8 94 126.5 L 97.5 122 L 100.5 121 Z " /><path fill="rgb(45,142,166)" stroke="rgb(45,142,166)" stroke-width="1" opacity="0.5843137254901961" d="M 225.5 121 L 231 123.5 L 232 126.5 L 231 126.5 L 228.5 123 Q 224.7 122.8 225.5 121 Z " /><path fill="rgb(45,142,166)" stroke="rgb(45,142,166)" stroke-width="1" opacity="0.5843137254901961" d="M 390.5 121 L 392 121.5 L 387 123 L 386.5 125 L 386 123.5 L 390.5 121 Z " /><path fill="rgb(45,142,166)" stroke="rgb(45,142,166)" stroke-width="1" opacity="0.5843137254901961" d="M 444.5 121 L 450 123.5 L 451 125.5 L 448.5 127 L 444.5 124 L 443 126.5 L 447 128.5 L 444.5 129 L 442 128 L 442 124 L 443.5 124 L 446 122.5 L 444.5 121 Z M 447 123 L 447 124 L 450 126 L 449 125 Q 450 122 447 123 Z " /><path fill="rgb(45,142,166)" stroke="rgb(45,142,166)" stroke-width="1" opacity="0.5843137254901961" d="M 479.5 121 L 485 123.5 Q 486.5 127.9 483.5 127 L 479.5 124 L 477 125 Q 475.9 127.7 478.5 127 L 485 130.5 L 483.5 130 L 476 126.5 L 477.5 124 L 481 122.5 L 479.5 121 Z M 482 123 L 484 126 L 484 125 L 482 123 Z " /><path fill="rgb(45,142,166)" stroke="rgb(45,142,166)" stroke-width="1" opacity="0.5843137254901961" d="M 38.5 122 L 39 136.5 L 38 136.5 L 38.5 122 Z " /><path fill="rgb(45,142,166)" stroke="rgb(45,142,166)" stroke-width="1" opacity="0.5843137254901961" d="M 54.5 122 L 55 136.5 L 54 136.5 L 54.5 122 Z " /><path fill="rgb(45,142,166)" stroke="rgb(45,142,166)" stroke-width="1" opacity="0.5843137254901961" d="M 57.5 122 L 58 136.5 L 57 136.5 L 57.5 122 Z " /><path fill="rgb(45,142,166)" stroke="rgb(45,142,166)" stroke-width="1" opacity="0.5843137254901961" d="M 64.5 122 L 65 136.5 L 64 136.5 L 64.5 122 Z " /><path fill="rgb(45,142,166)" stroke="rgb(45,142,166)" stroke-width="1" opacity="0.5843137254901961" d="M 67.5 122 L 73.5 131 L 74.5 122 L 75 132.5 L 72 130.5 L 67 123.5 L 67.5 122 Z " /><path fill="rgb(45,142,166)" stroke="rgb(45,142,166)" stroke-width="1" opacity="0.5843137254901961" d="M 84.5 122 L 85 136.5 L 84 136.5 L 84.5 122 Z " /><path fill="rgb(45,142,166)" stroke="rgb(45,142,166)" stroke-width="1" opacity="0.5843137254901961" d="M 87.5 122 L 88 136.5 L 87 136.5 L 87.5 122 Z " /><path fill="rgb(45,142,166)" stroke="rgb(45,142,166)" stroke-width="1" opacity="0.5843137254901961" d="M 124.5 122 L 125 136.5 L 124 136.5 L 124.5 122 Z " /><path fill="rgb(45,142,166)" stroke="rgb(45,142,166)" stroke-width="1" opacity="0.5843137254901961" d="M 126.5 122 L 134 122 L 134 125 L 127 125 L 127 128 L 134 128 L 134 131 L 127 130.5 L 133 129.5 Q 127.6 130.4 126 127.5 L 126 124 L 132.5 124 L 132.5 123 L 126.5 123 L 126.5 122 Z " /><path fill="rgb(45,142,166)" stroke="rgb(45,142,166)" stroke-width="1" opacity="0.5843137254901961" d="M 143.5 122 L 146 122.5 L 142 125.5 L 140.5 132 L 140 127.5 L 143.5 122 Z " /><path fill="rgb(45,142,166)" stroke="rgb(45,142,166)" stroke-width="1" opacity="0.5843137254901961" d="M 149.5 122 L 154 125.5 L 153.5 128 L 150.5 123 L 149.5 122 Z " /><path fill="rgb(45,142,166)" stroke="rgb(45,142,166)" stroke-width="1" opacity="0.5843137254901961" d="M 161.5 122 L 162 136.5 L 161 136.5 L 161.5 122 Z " /><path fill="rgb(45,142,166)" stroke="rgb(45,142,166)" stroke-width="1" opacity="0.5843137254901961" d="M 163.5 122 Q 170.3 120.3 172 123.5 L 173 126.5 L 171 125.5 L 169.5 123 L 163.5 123 L 163.5 122 Z " /><path fill="rgb(45,142,166)" stroke="rgb(45,142,166)" stroke-width="1" opacity="0.5843137254901961" d="M 189.5 122 L 190 136.5 L 189 136.5 L 189.5 122 Z " /><path fill="rgb(45,142,166)" stroke="rgb(45,142,166)" stroke-width="1" opacity="0.5843137254901961" d="M 191.5 122 L 192 136.5 L 191 136.5 L 191.5 122 Z " /><path fill="rgb(45,142,166)" stroke="rgb(45,142,166)" stroke-width="1" opacity="0.5843137254901961" d="M 199.5 122 L 200 136.5 L 199 136.5 L 199.5 122 Z " /><path fill="rgb(45,142,166)" stroke="rgb(45,142,166)" stroke-width="1" opacity="0.5843137254901961" d="M 201.5 122 L 208.5 131 Q 211.1 130.3 210 133 Q 207.3 134.1 208 131.5 L 203.5 126 L 203 127.5 L 209 136.5 L 208 136.5 L 202.5 128 L 201.5 137 L 201 126 Q 203.7 127.1 203 124.5 L 201.5 122 Z " /><path fill="rgb(45,142,166)" stroke="rgb(45,142,166)" stroke-width="1" opacity="0.5843137254901961" d="M 211.5 122 L 212 136.5 L 211 136.5 L 211.5 122 Z " /><path fill="rgb(45,142,166)" stroke="rgb(45,142,166)" stroke-width="1" opacity="0.5843137254901961" d="M 222.5 122 L 224 122.5 L 220 125.5 L 219.5 128 L 219 125.5 L 222.5 122 Z " /><path fill="rgb(45,142,166)" stroke="rgb(45,142,166)" stroke-width="1" opacity="0.5843137254901961" d="M 241.5 122 L 242 132.5 L 244 134.5 L 242 135 Q 239.5 131 241.5 122 Z " /><path fill="rgb(45,142,166)" stroke="rgb(45,142,166)" stroke-width="1" opacity="0.5843137254901961" d="M 248.5 122 L 249 133.5 L 246.5 135 L 248 132.5 L 248.5 122 Z " /><path fill="rgb(45,142,166)" stroke="rgb(45,142,166)" stroke-width="1" opacity="0.5843137254901961" d="M 258.5 122 L 259 136.5 L 258 136.5 L 258.5 122 Z " /><path fill="rgb(45,142,166)" stroke="rgb(45,142,166)" stroke-width="1" opacity="0.5843137254901961" d="M 260.5 122 Q 267.3 120.3 269 123.5 L 268.5 125 Q 267 121.5 260.5 123 L 260.5 122 Z " /><path fill="rgb(45,142,166)" stroke="rgb(45,142,166)" stroke-width="1" opacity="0.5843137254901961" d="M 280.5 122 L 281 123.5 L 277.5 132 L 277 130.5 L 280.5 122 Z " /><path fill="rgb(45,142,166)" stroke="rgb(45,142,166)" stroke-width="1" opacity="0.5843137254901961" d="M 295.5 122 L 296 136.5 L 295 136.5 L 295.5 122 Z " /><path fill="rgb(45,142,166)" stroke="rgb(45,142,166)" stroke-width="1" opacity="0.5843137254901961" d="M 297.5 122 Q 304.5 120.5 306 124.5 L 305 129.5 L 307 133.5 L 304.5 137 L 303 136.5 L 305 136 L 306 132.5 L 305 130 L 303 130.5 L 304 135 L 302 134.5 L 303 131 L 298 131 L 298 134.5 L 297 134.5 Q 294.7 127.3 302.5 130 Q 305.8 129.3 305 124.5 Q 303.5 121.5 297.5 123 L 297.5 122 Z " /><path fill="rgb(45,142,166)" stroke="rgb(45,142,166)" stroke-width="1" opacity="0.5843137254901961" d="M 313.5 122 L 314 136.5 L 313 136.5 L 313.5 122 Z " /><path fill="rgb(45,142,166)" stroke="rgb(45,142,166)" stroke-width="1" opacity="0.5843137254901961" d="M 315.5 122 L 316 134.5 L 315 134.5 L 315.5 122 Z " /><path fill="rgb(45,142,166)" stroke="rgb(45,142,166)" stroke-width="1" opacity="0.5843137254901961" d="M 329.5 122 L 330 136.5 L 329 136.5 L 329.5 122 Z " /><path fill="rgb(45,142,166)" stroke="rgb(45,142,166)" stroke-width="1" opacity="0.5843137254901961" d="M 331.5 122 L 339 122.5 L 331.5 123 L 331.5 122 Z " /><path fill="rgb(45,142,166)" stroke="rgb(45,142,166)" stroke-width="1" opacity="0.5843137254901961" d="M 356.5 122 L 357 136.5 L 356 136.5 L 356.5 122 Z " /><path fill="rgb(45,142,166)" stroke="rgb(45,142,166)" stroke-width="1" opacity="0.5843137254901961" d="M 358.5 122 Q 366.3 120.3 368 124.5 L 369 132.5 L 365.5 137 L 363 136.5 L 367 134.5 L 368 126.5 L 367 124 L 365 124.5 Q 367.8 126.2 367 131.5 L 366 134 L 362.5 135 L 362.5 134 L 366 131.5 Q 367 126 363.5 125 Q 357.6 122.9 359 127.5 L 358 127.5 L 358 124 L 364.5 124 L 364.5 123 L 358.5 123 L 358.5 122 Z " /><path fill="rgb(45,142,166)" stroke="rgb(45,142,166)" stroke-width="1" opacity="0.5843137254901961" d="M 375.5 122 L 376 136.5 L 375 136.5 L 375.5 122 Z " /><path fill="rgb(45,142,166)" stroke="rgb(45,142,166)" stroke-width="1" opacity="0.5843137254901961" d="M 378.5 122 L 379 136.5 L 378 136.5 L 378.5 122 Z " /><path fill="rgb(45,142,166)" stroke="rgb(45,142,166)" stroke-width="1" opacity="0.5843137254901961" d="M 393.5 122 L 397 124.5 L 395.5 127 L 391 123.5 L 392.5 124 Q 395.1 123.3 394 126 L 396 126 L 394.5 123 L 393.5 122 Z " /><path fill="rgb(45,142,166)" stroke="rgb(45,142,166)" stroke-width="1" opacity="0.5843137254901961" d="M 403.5 122 L 404 136.5 L 403 136.5 L 403.5 122 Z " /><path fill="rgb(45,142,166)" stroke="rgb(45,142,166)" stroke-width="1" opacity="0.5843137254901961" d="M 405.5 122 L 412 122.5 L 405.5 123 L 405.5 122 Z " /><path fill="rgb(45,142,166)" stroke="rgb(45,142,166)" stroke-width="1" opacity="0.5843137254901961" d="M 413.5 122 L 414 123.5 Q 412.4 126.5 407 125 Q 405.2 130.3 412.5 128 L 412.5 129 L 406 129 L 406 124 L 412.5 124 L 413.5 122 Z " /><path fill="rgb(45,142,166)" stroke="rgb(45,142,166)" stroke-width="1" opacity="0.5843137254901961" d="M 424.5 122 L 425 124.5 L 423.5 127 L 423 125.5 L 424.5 122 Z " /><path fill="rgb(45,142,166)" stroke="rgb(45,142,166)" stroke-width="1" opacity="0.5843137254901961" d="M 427.5 122 L 429 124.5 L 428 124.5 L 427.5 122 Z " /><path fill="rgb(45,142,166)" stroke="rgb(45,142,166)" stroke-width="1" opacity="0.5843137254901961" d="M 441.5 122 L 443 122.5 L 440.5 124 L 441.5 122 Z " /><path fill="rgb(45,142,166)" stroke="rgb(45,142,166)" stroke-width="1" opacity="0.5843137254901961" d="M 457.5 122 L 458 136.5 L 457 136.5 L 457.5 122 Z " /><path fill="rgb(45,142,166)" stroke="rgb(45,142,166)" stroke-width="1" opacity="0.5843137254901961" d="M 459.5 122 L 467 122.5 L 459.5 123 L 459.5 122 Z " /><path fill="rgb(45,142,166)" stroke="rgb(45,142,166)" stroke-width="1" opacity="0.5843137254901961" d="M 476.5 122 L 478 122.5 L 475 124.5 Q 474.3 128.3 476.5 129 L 483 131 L 481.5 135 L 482 133.5 L 480.5 131 Q 475.8 130.8 474 127.5 Q 473.3 122.8 476.5 122 Z " /><path fill="rgb(45,142,166)" stroke="rgb(45,142,166)" stroke-width="1" opacity="0.5843137254901961" d="M 22.5 124 L 24 124.5 L 21 126.5 L 22.5 124 Z " /><path fill="rgb(45,142,166)" stroke="rgb(45,142,166)" stroke-width="1" opacity="0.5843137254901961" d="M 26.5 124 L 29 125.5 L 28.5 127 L 26.5 124 Z " /><path fill="rgb(45,142,166)" stroke="rgb(45,142,166)" stroke-width="1" opacity="0.5843137254901961" d="M 76.5 124 L 77 128.5 L 76 128.5 L 76.5 124 Z " /><path fill="rgb(45,142,166)" stroke="rgb(45,142,166)" stroke-width="1" opacity="0.5843137254901961" d="M 98.5 124 L 101 124.5 L 97.5 127 L 97 125.5 L 98.5 124 Z " /><path fill="rgb(45,142,166)" stroke="rgb(45,142,166)" stroke-width="1" opacity="0.5843137254901961" d="M 102.5 124 L 105 125.5 L 104.5 127 L 102.5 124 Z " /><path fill="rgb(45,142,166)" stroke="rgb(45,142,166)" stroke-width="1" opacity="0.5843137254901961" d="M 145.5 124 L 147 124.5 L 144 126.5 L 143.5 128 L 143 126.5 L 145.5 124 Z " /><path fill="rgb(45,142,166)" stroke="rgb(45,142,166)" stroke-width="1" opacity="0.5843137254901961" d="M 148.5 124 L 152 126.5 Q 153.5 133.5 149.5 135 L 148 134.5 L 151 132.5 Q 152.5 126.5 149.5 125 L 148.5 124 Z " /><path fill="rgb(45,142,166)" stroke="rgb(45,142,166)" stroke-width="1" opacity="0.5843137254901961" d="M 163 124 Q 168.4 122.5 170 125.5 Q 171.5 129.9 168.5 129 L 164.5 130 L 164.5 129 Q 168.3 129.8 169 127.5 L 169 125 L 164 125 L 163.5 128 L 163 124 Z " /><path fill="rgb(45,142,166)" stroke="rgb(45,142,166)" stroke-width="1" opacity="0.5843137254901961" d="M 223.5 124 L 225 124.5 L 222 126.5 Q 220.5 132.5 223.5 134 L 225 134.5 L 223.5 135 Q 219.5 133.5 221 126.5 L 223.5 124 Z " /><path fill="rgb(45,142,166)" stroke="rgb(45,142,166)" stroke-width="1" opacity="0.5843137254901961" d="M 226.5 124 L 230 126.5 L 227.5 125 L 226.5 124 Z " /><path fill="rgb(45,142,166)" stroke="rgb(45,142,166)" stroke-width="1" opacity="0.5843137254901961" d="M 260 124 Q 265.4 122.5 267 125.5 Q 268.5 129.9 265.5 129 L 261.5 130 L 261.5 129 Q 265.3 129.8 266 127.5 L 266 125 L 261 125 L 260.5 127 L 260 124 Z " /><path fill="rgb(45,142,166)" stroke="rgb(45,142,166)" stroke-width="1" opacity="0.5843137254901961" d="M 284.5 124 L 289 136.5 L 288 136.5 L 284.5 124 Z " /><path fill="rgb(45,142,166)" stroke="rgb(45,142,166)" stroke-width="1" opacity="0.5843137254901961" d="M 297 124 Q 302.4 122.5 304 125.5 L 301.5 129 L 297 129 L 297 124 Z M 298 125 L 298 128 Q 302 129 303 127 L 303 125 L 298 125 Z " /><path fill="rgb(45,142,166)" stroke="rgb(45,142,166)" stroke-width="1" opacity="0.5843137254901961" d="M 331 124 L 339 124.5 L 332 125 L 332 128 L 339 128 L 339 131 L 332 131 L 332 134.5 L 331 134.5 Q 330.3 130.8 332.5 130 L 338 129.5 L 331 129 L 331 124 Z " /><path fill="rgb(45,142,166)" stroke="rgb(45,142,166)" stroke-width="1" opacity="0.5843137254901961" d="M 388 124 L 390 124.5 L 389 126.5 L 393 128.5 L 390.5 129 L 388 128 L 388 124 Z " /><path fill="rgb(45,142,166)" stroke="rgb(45,142,166)" stroke-width="1" opacity="0.5843137254901961" d="M 459 124 L 467 124.5 L 460 125 L 460 128 L 467 128 L 467 131 L 460 131 L 460 134.5 L 460.5 136 Q 458.3 135.3 459 131.5 Q 460.6 128.6 466 129.5 L 459 129 L 459 124 Z " /><path fill="rgb(45,142,166)" stroke="rgb(45,142,166)" stroke-width="1" opacity="0.5843137254901961" d="M 282.5 125 L 283 126.5 Q 280.3 127.6 281 131 L 284 130.5 L 283 128.5 L 284 128.5 L 285 130.5 Q 283.8 133 280 132 Q 279.2 127 282.5 125 Z " /><path fill="rgb(45,142,166)" stroke="rgb(45,142,166)" stroke-width="1" opacity="0.5843137254901961" d="M 426.5 125 L 428 128.5 L 427 128.5 L 426.5 127 L 424.5 131 L 424 129.5 L 426.5 125 Z " /><path fill="rgb(45,142,166)" stroke="rgb(45,142,166)" stroke-width="1" opacity="0.5843137254901961" d="M 439.5 125 L 441.5 129 L 448 131 L 448 135 L 446.5 135 L 444.5 136 L 444.5 135 L 447 133.5 L 445.5 131 Q 440.8 130.8 439 127.5 L 439.5 125 Z " /><path fill="rgb(45,142,166)" stroke="rgb(45,142,166)" stroke-width="1" opacity="0.5843137254901961" d="M 67.5 126 L 75 136.5 L 72 134.5 L 68.5 129 L 67.5 137 L 67.5 126 Z " /><path fill="rgb(45,142,166)" stroke="rgb(45,142,166)" stroke-width="1" opacity="0.5843137254901961" d="M 429.5 126 L 433 136.5 L 432 136.5 L 429.5 126 Z " /><path fill="rgb(45,142,166)" stroke="rgb(45,142,166)" stroke-width="1" opacity="0.5843137254901961" d="M 386.5 127 L 387 129 L 395 132.5 L 393.5 135 L 390.5 136 L 388 135 Q 389 132 386 133 L 387.5 136 L 393 137.5 L 389.5 138 L 385 134.5 Q 383.8 130.8 387.5 132 L 391.5 135 L 394 134 Q 395.1 131.3 392.5 132 L 386 128.5 L 386.5 127 Z " /><path fill="rgb(45,142,166)" stroke="rgb(45,142,166)" stroke-width="1" opacity="0.5843137254901961" d="M 20.5 128 L 21 130.5 L 20 130.5 L 20.5 128 Z " /><path fill="rgb(45,142,166)" stroke="rgb(45,142,166)" stroke-width="1" opacity="0.5843137254901961" d="M 96.5 128 L 97 130.5 L 96 130.5 L 96.5 128 Z " /><path fill="rgb(45,142,166)" stroke="rgb(45,142,166)" stroke-width="1" opacity="0.5843137254901961" d="M 171.5 128 L 172 129.5 Q 168.5 131 171 132.5 L 173 136.5 L 171 135.5 L 169 131.5 L 171.5 128 Z " /><path fill="rgb(45,142,166)" stroke="rgb(45,142,166)" stroke-width="1" opacity="0.5843137254901961" d="M 268.5 128 L 269 129.5 Q 265.5 131 268 132.5 L 270 136.5 L 268 135.5 L 266 131.5 L 268.5 128 Z " /><path fill="rgb(45,142,166)" stroke="rgb(45,142,166)" stroke-width="1" opacity="0.5843137254901961" d="M 394.5 129 Q 397.8 129.8 397 134.5 L 394 136.5 Q 396.8 135.8 396 131.5 L 394.5 129 Z " /><path fill="rgb(45,142,166)" stroke="rgb(45,142,166)" stroke-width="1" opacity="0.5843137254901961" d="M 448.5 129 Q 451.8 129.8 451 134.5 L 448 136.5 Q 450.8 135.8 450 131.5 L 448.5 129 Z " /><path fill="rgb(45,142,166)" stroke="rgb(45,142,166)" stroke-width="1" opacity="0.5843137254901961" d="M 406 130 L 413 130.5 L 407 131 L 406.5 135 L 406 130 Z " /><path fill="rgb(45,142,166)" stroke="rgb(45,142,166)" stroke-width="1" opacity="0.5843137254901961" d="M 428.5 130 L 427.5 132 L 426 131.5 L 428.5 130 Z " /><path fill="rgb(45,142,166)" stroke="rgb(45,142,166)" stroke-width="1" opacity="0.5843137254901961" d="M 143.5 131 L 146 134.5 L 143 132.5 L 143.5 131 Z " /><path fill="rgb(45,142,166)" stroke="rgb(45,142,166)" stroke-width="1" opacity="0.5843137254901961" d="M 153.5 131 L 154 133.5 L 153 136 L 146.5 138 L 146.5 137 Q 151.3 136.8 153 133.5 L 153.5 131 Z " /><path fill="rgb(45,142,166)" stroke="rgb(45,142,166)" stroke-width="1" opacity="0.5843137254901961" d="M 164.5 131 Q 168.5 130.5 169 133.5 L 170 136.5 L 169 136.5 L 166.5 132 Q 162.3 130.7 164 135.5 L 163 135.5 Q 162.3 131.8 164.5 131 Z " /><path fill="rgb(45,142,166)" stroke="rgb(45,142,166)" stroke-width="1" opacity="0.5843137254901961" d="M 261.5 131 L 265 132.5 L 263.5 132 Q 260.5 132.5 261.5 131 Z " /><path fill="rgb(45,142,166)" stroke="rgb(45,142,166)" stroke-width="1" opacity="0.5843137254901961" d="M 421.5 131 L 422 132.5 L 419.5 137 L 420 135.5 L 421.5 131 Z " /><path fill="rgb(45,142,166)" stroke="rgb(45,142,166)" stroke-width="1" opacity="0.5843137254901961" d="M 21.5 132 L 23.5 135 L 21 133.5 L 21.5 132 Z " /><path fill="rgb(45,142,166)" stroke="rgb(45,142,166)" stroke-width="1" opacity="0.5843137254901961" d="M 28 132 L 30 132.5 L 26.5 135 L 26.5 134 Q 29.1 134.7 28 132 Z " /><path fill="rgb(45,142,166)" stroke="rgb(45,142,166)" stroke-width="1" opacity="0.5843137254901961" d="M 97.5 132 L 99.5 135 L 97 133.5 L 97.5 132 Z " /><path fill="rgb(45,142,166)" stroke="rgb(45,142,166)" stroke-width="1" opacity="0.5843137254901961" d="M 104.5 132 L 105 133.5 L 102.5 135 L 102.5 134 Q 105 134.7 104.5 132 Z " /><path fill="rgb(45,142,166)" stroke="rgb(45,142,166)" stroke-width="1" opacity="0.5843137254901961" d="M 219.5 132 L 222.5 136 L 227 137.5 L 224.5 138 L 220 136 L 219.5 132 Z " /><path fill="rgb(45,142,166)" stroke="rgb(45,142,166)" stroke-width="1" opacity="0.5843137254901961" d="M 229.5 132 Q 232.8 130.9 232 133.5 L 229.5 137 L 228 136.5 L 230 136 L 231 133.5 L 229.5 133 L 226.5 135 L 226.5 134 L 229.5 132 Z " /><path fill="rgb(45,142,166)" stroke="rgb(45,142,166)" stroke-width="1" opacity="0.5843137254901961" d="M 439 132 Q 442.7 130.5 442 133.5 L 442.5 135 L 440 133.5 L 442 136.5 L 439 134.5 L 439 132 Z " /><path fill="rgb(45,142,166)" stroke="rgb(45,142,166)" stroke-width="1" opacity="0.5843137254901961" d="M 474.5 132 L 478 134.5 L 475.5 133 L 474.5 132 Z " /><path fill="rgb(45,142,166)" stroke="rgb(45,142,166)" stroke-width="1" opacity="0.5843137254901961" d="M 141.5 133 L 142 135 L 145 136.5 L 143.5 137 Q 139.9 135.9 141.5 133 Z " /><path fill="rgb(45,142,166)" stroke="rgb(45,142,166)" stroke-width="1" opacity="0.5843137254901961" d="M 239.5 133 L 241.5 136 L 246.5 137 L 250 134.5 L 250.5 133 L 251 134.5 Q 249.7 138.7 243.5 138 L 239 134.5 L 239.5 133 Z " /><path fill="rgb(45,142,166)" stroke="rgb(45,142,166)" stroke-width="1" opacity="0.5843137254901961" d="M 279.5 133 L 286 133 L 286 135.5 L 286.5 137 L 285 134 L 279 134 L 279 136.5 L 278 136.5 L 279.5 133 Z " /><path fill="rgb(45,142,166)" stroke="rgb(45,142,166)" stroke-width="1" opacity="0.5843137254901961" d="M 423 133 L 429.5 133 L 430 134.5 L 431 136.5 L 430 136.5 L 428.5 134 Q 424 133 423 135.5 L 422.5 137 L 422 135.5 L 423 133 Z " /><path fill="rgb(45,142,166)" stroke="rgb(45,142,166)" stroke-width="1" opacity="0.5843137254901961" d="M 106.5 134 L 104.5 137 L 100.5 138 L 100.5 137 L 106.5 134 Z " /><path fill="rgb(45,142,166)" stroke="rgb(45,142,166)" stroke-width="1" opacity="0.5843137254901961" d="M 265.5 134 L 267 136.5 L 266 136.5 L 265.5 134 Z " /><path fill="rgb(45,142,166)" stroke="rgb(45,142,166)" stroke-width="1" opacity="0.5843137254901961" d="M 474.5 134 L 475 136 L 477 136.5 L 475.5 137 L 474.5 134 Z " /><path fill="rgb(45,142,166)" stroke="rgb(45,142,166)" stroke-width="1" opacity="0.5843137254901961" d="M 484.5 135 L 483.5 137 L 478.5 138 L 478.5 137 Q 483.1 137.6 484.5 135 Z " /><path fill="rgb(45,142,166)" stroke="rgb(45,142,166)" stroke-width="1" opacity="0.5843137254901961" d="M 443.5 137 L 447 137.5 L 443.5 138 L 443.5 137 Z " /><path fill="rgb(53,149,171)" stroke="rgb(53,149,171)" stroke-width="1" opacity="0.996078431372549" d="M 180.5 16 L 191.5 18 Q 199.6 20.9 204 27.5 L 207 34.5 L 190.5 36 Q 188 30 179.5 30 L 172 35.5 Q 168.3 41.3 170 52.5 Q 171.5 59 176.5 62 L 184.5 63 L 192 57.5 L 191.5 56 L 185 56 L 185 44 L 209 44 L 209 75 L 197 75 L 197 70 L 195.5 70 L 186.5 76 L 177.5 77 Q 176.3 74.7 171.5 76 L 163.5 72 L 159 67.5 L 153 55.5 L 152 44.5 L 154 34.5 L 160 24 L 167.5 19 L 180.5 16 Z " /><path fill="rgb(53,149,171)" stroke="rgb(53,149,171)" stroke-width="1" opacity="0.996078431372549" d="M 10 18 L 41.5 18 Q 52.8 20.2 59 27.5 Q 66.3 35.7 64 53.5 Q 61.6 64.6 53.5 70 L 39.5 75 L 10 75 L 10 18 Z M 28 32 L 28 60 Q 39 62 44 57 L 47 50 Q 48 42 45 38 L 40 33 L 28 32 Z " /><path fill="rgb(53,149,171)" stroke="rgb(53,149,171)" stroke-width="1" opacity="0.996078431372549" d="M 70 18 L 108.5 18 Q 116.2 19.9 120 25.5 Q 123.3 30.2 122 39.5 L 115.5 47 L 113 48.5 L 119 53.5 L 121 57.5 L 122 72.5 L 123 75 L 105 75 L 105 65.5 L 103 58.5 L 99.5 55 L 88 55 L 88 75 L 70 75 L 70 18 Z M 88 31 L 88 42 L 102 42 L 105 38 L 104 34 L 101 31 L 88 31 Z " /><path fill="rgb(53,149,171)" stroke="rgb(53,149,171)" stroke-width="1" opacity="0.996078431372549" d="M 216 18 L 234 18 L 234 56.5 L 236 61 L 244.5 63 L 251 58.5 L 252 56.5 L 252 18 L 270 18 L 270 53.5 L 268 63.5 L 261.5 72 L 255.5 75 L 241.5 77 L 227.5 74 L 220 67.5 L 217 61.5 Q 218.5 56 216 54.5 L 216 18 Z " /><path fill="rgb(53,149,171)" stroke="rgb(53,149,171)" stroke-width="1" opacity="0.996078431372549" d="M 277 18 L 294.5 18 L 295 19.5 L 311.5 47 L 312 20.5 L 313 19.5 L 312.5 18 L 329.5 18 L 330 18.5 L 330 75 L 312.5 75 L 310 72.5 L 294.5 46 L 294 75 L 277.5 75 L 277 74.5 L 277 18 Z " /><path fill="rgb(53,149,171)" stroke="rgb(53,149,171)" stroke-width="1" opacity="0.996078431372549" d="M 337 18 L 385.5 18 L 386 18.5 L 386 32 L 355.5 32 L 355 32.5 L 355 39 L 381 39 L 381 53 L 355.5 53 L 355 53.5 L 355 60 L 385.5 60 L 387 61.5 L 386 70.5 L 387 75 L 337 75 L 337 18 Z " /><path fill="rgb(53,149,171)" stroke="rgb(53,149,171)" stroke-width="1" opacity="0.996078431372549" d="M 392 18 L 440.5 18 L 441 18.5 L 441 32 L 410.5 32 L 410 32.5 L 410 39 L 436 39 L 436 53 L 410.5 53 L 410 53.5 L 410 60 L 440.5 60 L 441 61.5 L 442 62.5 L 442 73.5 L 440.5 75 L 392 75 L 392 18 Z " /><path fill="rgb(53,149,171)" stroke="rgb(53,149,171)" stroke-width="1" opacity="0.996078431372549" d="M 444 18 L 494.5 18 L 495 18.5 L 495 32 L 479.5 32 L 478 33.5 L 478 75 L 461 75 L 461 33.5 L 459.5 32 L 444 32 L 444 18 Z " /><path fill="rgb(53,149,171)" stroke="rgb(53,149,171)" stroke-width="1" opacity="0.996078431372549" d="M 129 60 L 146 60 L 146 75 L 129 75 L 129 60 Z " /><path fill="rgb(53,149,171)" stroke="rgb(53,149,171)" stroke-width="1" opacity="0.996078431372549" d="M 19 99 L 483.5 99 L 484 101 L 19.5 101 L 19 99 Z " /><path fill="rgb(53,149,171)" stroke="rgb(53,149,171)" stroke-width="1" opacity="0.996078431372549" d="M 24.5 122 L 30 124.5 L 31 126.5 L 29 127 L 27.5 124 Q 22.3 122.8 21 125.5 L 20 130.5 L 22.5 135 Q 29.3 136.3 30.5 132 L 31 133.5 Q 29.7 137.7 23.5 137 L 20 134.5 L 19 126.5 L 21.5 123 L 24.5 122 Z " /><path fill="rgb(53,149,171)" stroke="rgb(53,149,171)" stroke-width="1" opacity="0.996078431372549" d="M 39.5 122 L 41 125.5 L 41 129.5 L 41 135 L 47 135 L 47 137 L 39 137 L 39.5 122 Z " /><path fill="rgb(53,149,171)" stroke="rgb(53,149,171)" stroke-width="1" opacity="0.996078431372549" d="M 55 122 L 57 122.5 L 57 137 L 55 136.5 L 55 122 Z " /><path fill="rgb(53,149,171)" stroke="rgb(53,149,171)" stroke-width="1" opacity="0.996078431372549" d="M 65 122 Q 67.7 120.9 67 123.5 L 74.5 133 L 75.5 122 Q 78.3 123.3 76 124.5 L 77 133.5 L 77 135.5 Q 77.8 137.8 75.5 137 L 67.5 126 L 67 137 L 65 136.5 L 65 122 Z " /><path fill="rgb(53,149,171)" stroke="rgb(53,149,171)" stroke-width="1" opacity="0.996078431372549" d="M 85 122 L 87 122.5 L 87 137 L 85 136.5 L 85 122 Z " /><path fill="rgb(53,149,171)" stroke="rgb(53,149,171)" stroke-width="1" opacity="0.996078431372549" d="M 100.5 122 Q 105.3 122.3 107 125.5 Q 107.7 128.1 105 127 L 103.5 124 Q 98.3 122.8 97 125.5 L 96 130.5 L 98.5 135 Q 103.8 136.3 105 133.5 Q 104.3 130.9 107 132 L 104.5 136 L 99.5 137 L 96 134.5 L 95 126.5 L 97.5 123 L 100.5 122 Z " /><path fill="rgb(53,149,171)" stroke="rgb(53,149,171)" stroke-width="1" opacity="0.996078431372549" d="M 125.5 122 L 133 123.5 L 126 124 Q 125 127.8 127.5 129 L 133 129.5 L 127 130 L 126 133.5 L 127 137 L 125 136.5 L 125.5 122 Z " /><path fill="rgb(53,149,171)" stroke="rgb(53,149,171)" stroke-width="1" opacity="0.996078431372549" d="M 146.5 122 Q 151.3 122.3 153 125.5 L 154 130.5 L 150.5 136 L 145.5 137 L 142 135 Q 140.4 132.9 141 127.5 L 144.5 123 L 146.5 122 Z M 146 124 Q 142 126 143 133 Q 144 136 150 135 Q 153 134 152 127 Q 151 123 146 124 Z " /><path fill="rgb(53,149,171)" stroke="rgb(53,149,171)" stroke-width="1" opacity="0.996078431372549" d="M 162.5 122 Q 164 124.5 169.5 123 L 171 124.5 L 172 127.5 L 169 131.5 L 172 136.5 L 170 137 L 166.5 131 L 163 132.5 L 164 136.5 L 162 137 L 162.5 122 Z M 163 124 L 164 130 L 169 129 Q 172 130 170 126 Q 168 122 163 124 Z " /><path fill="rgb(53,149,171)" stroke="rgb(53,149,171)" stroke-width="1" opacity="0.996078431372549" d="M 190.5 122 L 191 136.5 L 190 136.5 L 190.5 122 Z " /><path fill="rgb(53,149,171)" stroke="rgb(53,149,171)" stroke-width="1" opacity="0.996078431372549" d="M 200.5 122 L 208 133 Q 210.7 134.1 210 131.5 L 209 127.5 L 210 125.5 L 209 123.5 L 211 122.5 L 211 136.5 L 209 137 L 203 126 L 201 126.5 L 201 136.5 L 200 136.5 L 200.5 122 Z " /><path fill="rgb(53,149,171)" stroke="rgb(53,149,171)" stroke-width="1" opacity="0.996078431372549" d="M 224.5 122 Q 229.3 122.3 231 125.5 L 230.5 127 Q 229.5 123 223.5 124 Q 219.5 125.5 221 132.5 Q 222 136 227.5 135 L 230.5 133 L 230 134.5 Q 230.8 136.8 228.5 136 L 224.5 137 L 220 133.5 L 219 128.5 L 222.5 123 L 224.5 122 Z " /><path fill="rgb(53,149,171)" stroke="rgb(53,149,171)" stroke-width="1" opacity="0.996078431372549" d="M 240.5 122 L 241 132.5 L 242 135 Q 247.4 136.5 249 133.5 L 249.5 122 L 251 123.5 L 251 132.5 L 248.5 136 L 243.5 137 L 240 134.5 Q 237.7 131.3 239 124.5 L 240.5 122 Z " /><path fill="rgb(53,149,171)" stroke="rgb(53,149,171)" stroke-width="1" opacity="0.996078431372549" d="M 259.5 122 Q 261 124.5 266.5 123 L 269 125.5 L 266 131.5 L 269 136.5 L 267 137 L 263.5 131 L 261 131 L 261 137 L 259 137 L 259.5 122 Z M 260 124 L 261 130 L 266 129 Q 268 130 267 126 Q 265 122 260 124 Z " /><path fill="rgb(53,149,171)" stroke="rgb(53,149,171)" stroke-width="1" opacity="0.996078431372549" d="M 281 122 L 284 123.5 L 288 136.5 L 286 135.5 L 286 133 L 279.5 133 L 278 137 Q 275.3 138.1 276 135.5 L 281 122 Z M 283 125 Q 279 127 280 132 Q 284 133 285 131 L 283 125 Z " /><path fill="rgb(53,149,171)" stroke="rgb(53,149,171)" stroke-width="1" opacity="0.996078431372549" d="M 296.5 122 Q 298 124.5 303.5 123 L 305 124.5 Q 305.8 128.8 303 129.5 L 305 130 L 306 133.5 L 305 136 Q 302.2 137.9 296 137 L 296.5 122 Z M 297 124 L 297 129 L 302 129 L 304 126 Q 302 122 297 124 Z M 297 130 L 297 135 L 304 135 L 304 132 Q 302 129 297 130 Z " /><path fill="rgb(53,149,171)" stroke="rgb(53,149,171)" stroke-width="1" opacity="0.996078431372549" d="M 314.5 122 L 315 135 L 321.5 135 L 322 137 L 314 137 L 314.5 122 Z " /><path fill="rgb(53,149,171)" stroke="rgb(53,149,171)" stroke-width="1" opacity="0.996078431372549" d="M 330.5 122 L 339 123.5 L 331 124 L 331 129 L 337.5 129 L 337.5 130 Q 332.3 128.8 331 131.5 L 331 135 L 338.5 135 L 339 137 L 330 137 L 330.5 122 Z " /><path fill="rgb(53,149,171)" stroke="rgb(53,149,171)" stroke-width="1" opacity="0.996078431372549" d="M 357.5 122 L 367 124 Q 368.8 126.4 368 132.5 L 365.5 136 L 357 137 L 357.5 122 Z M 358 124 L 359 134 L 359 135 Q 364 136 366 134 L 367 132 L 366 126 L 365 124 L 358 124 Z " /><path fill="rgb(53,149,171)" stroke="rgb(53,149,171)" stroke-width="1" opacity="0.996078431372549" d="M 376 122 L 378 122.5 L 378 137 L 376 136.5 L 376 122 Z " /><path fill="rgb(53,149,171)" stroke="rgb(53,149,171)" stroke-width="1" opacity="0.996078431372549" d="M 390.5 122 L 396 124.5 Q 396.7 127.1 394 126 Q 395.1 123.3 392.5 124 L 390.5 124 Q 385.9 122.8 388 128 L 393.5 129 L 396 131.5 Q 396.8 136.3 393.5 137 Q 387.7 137.8 386 134.5 Q 385.3 131.9 388 133 Q 386.9 135.7 389.5 135 L 391.5 136 L 395 133.5 L 393.5 131 L 387 129 L 386 125.5 L 387 123 L 390.5 122 Z " /><path fill="rgb(53,149,171)" stroke="rgb(53,149,171)" stroke-width="1" opacity="0.996078431372549" d="M 404.5 122 Q 406 124.5 411.5 123 L 413 122.5 L 412.5 124 L 406 124 L 406 129 L 413 129.5 L 406 130 L 406 135 L 412.5 135 L 413 137 L 404 137 L 404.5 122 Z " /><path fill="rgb(53,149,171)" stroke="rgb(53,149,171)" stroke-width="1" opacity="0.996078431372549" d="M 425 122 L 428 123.5 L 432 136.5 L 431 136.5 L 430 133 L 423.5 133 L 423 134.5 L 422 137 L 420 136.5 L 425 122 Z M 427 125 L 424 131 L 427 132 L 429 131 L 427 125 Z " /><path fill="rgb(53,149,171)" stroke="rgb(53,149,171)" stroke-width="1" opacity="0.996078431372549" d="M 443.5 122 L 449 123 L 450 125.5 L 448 126 Q 449.1 123.3 446.5 124 L 444.5 123 L 442 124 L 442 128 L 443.5 128 L 447.5 129 L 450 131.5 Q 450.8 136.3 447.5 137 Q 441.3 138.3 440 134.5 L 440.5 133 L 445.5 136 L 448 135 L 448 131 L 446.5 131 L 440 127.5 Q 439.3 123.8 441.5 123 L 443.5 122 Z " /><path fill="rgb(53,149,171)" stroke="rgb(53,149,171)" stroke-width="1" opacity="0.996078431372549" d="M 458.5 122 L 467 123.5 L 459 124 L 459 129 L 465.5 129 L 465.5 130 Q 460.3 128.8 459 131.5 Q 458.3 135.3 460.5 136 L 467 135 L 466.5 137 L 458 137 L 458.5 122 Z " /><path fill="rgb(53,149,171)" stroke="rgb(53,149,171)" stroke-width="1" opacity="0.996078431372549" d="M 478.5 122 L 484 124.5 L 483.5 126 L 479.5 123 L 476 125.5 L 477.5 128 L 485 131.5 Q 485.8 135.3 483.5 136 L 477.5 137 L 475 136 L 474 133.5 L 475.5 133 L 479.5 136 L 483 133.5 Q 484.1 130.2 481.5 131 L 475 127.5 Q 474.3 123.8 476.5 123 L 478.5 122 Z " /></svg>